# xmcd
#
# Track frame offsets:
#	150
#	20317
#	39040
#	51455
#	66785
#	82525
#	97377
#	109202
#	120835
#	142712
#	159255
#
# Disc length: 2372 seconds
#
# Revision: 2
# Processed by: cddbd v1.5.2PL0 Copyright (c) Steve Scherf et al.
# Submitted via: audiograbber 1.83.01
#
DISCID=7a09420b
DTITLE=Billy Preston - 20th Century Masters - The Millennium Collection.
DYEAR=2002
DGENRE=Oldies
TTITLE0=Will It Go Round In Circles
TTITLE1=Outa-Space
TTITLE2=Slaughter
TTITLE3=I Wrote A Simple Song
TTITLE4=Space Race
TTITLE5=You're So Unique
TTITLE6=Nothing From Nothing
TTITLE7=Struttin'
TTITLE8=You Are So Beautiful
TTITLE9=Billy Preston and Syreeta_With You I'm Born Again  
TTITLE10=That's The Way God Planned It  (Live)
EXTD=
EXTT0=
EXTT1=
EXTT2=
EXTT3=
EXTT4=
EXTT5=
EXTT6=
EXTT7=
EXTT8=
EXTT9=
EXTT10=
PLAYORDER=
